<svg width="326" height="91" viewBox="0 0 326 91" fill="none" xmlns="http://www.w3.org/2000/svg">
<g clip-path="url(#clip0_10931_600)">
<path d="M139.511 50.0772V51.3992C139.523 51.6539 139.523 51.7873 139.439 51.8722C139.354 51.9571 139.232 51.9571 139.039 51.9571H138.954L133.256 51.9813H133.074C132.698 51.9813 132.577 51.9813 132.541 51.8358C132.492 51.7024 132.638 51.6054 132.868 51.4477L138.796 47.4576C139.051 47.2878 139.196 47.1787 139.342 47.2514C139.487 47.3363 139.499 47.5304 139.499 47.9427C139.499 48.6825 139.511 49.3738 139.511 50.0772Z" fill="white"/>
<path d="M162.57 47.8576C162.57 47.4453 162.558 47.2512 162.412 47.1663C162.267 47.0935 162.121 47.1906 161.867 47.3725L155.926 51.3626C155.708 51.5203 155.563 51.6173 155.611 51.7507C155.647 51.8841 155.769 51.8962 156.144 51.8962H156.314L162.097 51.872C162.303 51.872 162.412 51.872 162.497 51.7871C162.594 51.7022 162.594 51.5688 162.582 51.3141V49.8102C162.57 49.1674 162.57 48.5368 162.57 47.8576ZM162.57 47.8576C162.57 47.4453 162.558 47.2512 162.412 47.1663C162.267 47.0935 162.121 47.1906 161.867 47.3725L155.926 51.3626C155.708 51.5203 155.563 51.6173 155.611 51.7507C155.647 51.8841 155.769 51.8962 156.144 51.8962H156.314L162.097 51.872C162.303 51.872 162.412 51.872 162.497 51.7871C162.594 51.7022 162.594 51.5688 162.582 51.3141V49.8102C162.57 49.1674 162.57 48.5368 162.57 47.8576ZM323.394 20.5697L244.497 20.6909L244.582 34.4562L290.977 34.0075C291.51 34.0075 291.886 38.8829 291.183 38.8829C291.183 38.8829 189.762 38.9678 173.674 38.8829C171.941 38.8708 168.607 38.895 164.097 38.9314C159.575 38.895 152.908 38.9072 151.174 38.9193C135.075 39.0042 33.5444 38.9193 33.5444 38.9193C32.8412 38.9193 32.817 34.0317 33.3504 34.0438L81.2606 34.4804L81.3454 20.7273L3.55204 20.5333C1.64873 20.5211 0.109107 22.0493 0.0969841 23.9534L0 41.9392C0.0606151 45.1652 1.01833 46.4386 3.23685 46.4508L85.4309 46.8631C87.516 46.9965 89.2496 47.2391 90.074 47.6999L110.174 58.9426C111.035 59.4277 113.69 60.5313 114.635 60.5192L164.097 60.1554L210.201 60.4828C211.159 60.495 213.814 59.3913 214.674 58.9062L234.774 47.6757C235.599 47.2027 237.332 46.9723 239.417 46.8267L322.642 46.4144C324.86 46.4022 325.806 45.1409 325.879 41.9149L326 23.6138C326.012 21.8916 325.115 20.5697 323.394 20.5697ZM145.367 53.9822L145.331 56.9415L139.427 56.99L139.318 54.2005C139.306 53.8973 139.318 53.8973 138.93 53.8973H138.869L127.001 54.0429L126.964 52.6967C126.94 51.6173 127.025 51.5203 127.861 50.9624L128.068 50.829L138.336 43.8796C138.833 43.54 138.869 43.5279 139.73 43.5279H145.125L145.197 50.7077V51.023C145.185 51.2898 145.185 51.496 145.246 51.5445C145.306 51.6052 145.549 51.593 145.852 51.593C146.907 51.593 148.107 51.593 149.162 51.593H149.295V53.9337L145.367 53.9944V53.9822ZM168.437 53.8973L168.401 56.8566L162.497 56.9051L162.388 54.1156C162.388 53.9135 162.258 53.8124 162 53.8124H161.927C157.999 53.861 154.084 53.9095 150.18 53.958H150.047V52.3571C150.034 51.5566 150.059 51.4717 150.786 50.9866L161.394 43.7947C161.903 43.4552 161.939 43.443 162.8 43.443H168.195L168.255 50.6228V50.9381C168.255 51.2049 168.255 51.4111 168.316 51.4596C168.377 51.5203 168.619 51.5081 168.922 51.5081C169.977 51.496 171.141 51.496 172.195 51.496H172.329L172.377 53.8367L168.437 53.8973ZM193.58 55.8742C192.998 56.4685 192.089 56.7595 190.792 56.7595L175.772 56.8323H175.747C173.432 56.8323 173.189 54.6371 173.177 53.9701L173.105 46.4386C173.08 45.4684 173.274 44.8014 173.723 44.3405C174.28 43.7584 175.262 43.5037 176.984 43.5037L191.059 43.4309H191.107C194.174 43.4309 194.199 44.9226 194.211 46.3659L194.308 53.679C194.332 54.625 194.077 55.3648 193.58 55.8742ZM186.816 45.6867C185.252 45.6988 183.688 45.6988 182.124 45.6867H180.051C179.493 45.6746 179.118 45.7231 178.924 45.9293C178.705 46.1476 178.717 46.4871 178.73 47.045L178.802 52.3692C178.827 53.7882 178.875 54.1642 180.051 54.1642H180.075L186.828 54.1399H187.337C187.846 54.152 188.113 54.152 188.307 53.9822C188.489 53.7882 188.513 53.4607 188.525 52.7937L188.561 47.4574C188.561 46.7297 188.513 46.2446 188.246 45.9778C187.967 45.6988 187.519 45.6867 186.816 45.6867ZM162.412 47.1663C162.267 47.0935 162.121 47.1906 161.867 47.3725L155.926 51.3626C155.708 51.5203 155.563 51.6173 155.611 51.7507C155.647 51.8841 155.769 51.8962 156.144 51.8962H156.314L162.097 51.872C162.303 51.872 162.412 51.872 162.497 51.7871C162.594 51.7022 162.594 51.5688 162.582 51.3141V49.8102C162.57 49.1674 162.57 48.5368 162.57 47.8576C162.57 47.4453 162.558 47.2512 162.412 47.1663Z" fill="url(#paint0_linear_10931_600)"/>
<path d="M86.5106 35.4865C86.5106 24.0619 86.5106 12.6495 86.5106 1.22493C86.5228 0 86.3045 0 87.8078 0H95.4089L100.173 13.9593L104.95 0H113.242L100.173 32.3938L94.6694 18.0464V35.4865H86.5228H86.5106Z" fill="url(#paint1_linear_10931_600)"/>
<path d="M188.355 12.541L196.066 0.679799V0.109784L188.355 0.0976562V12.541Z" fill="url(#paint2_linear_10931_600)"/>
<path d="M188.355 15.6938V35.6201H196.054L196.066 3.4082L188.355 15.6938Z" fill="url(#paint3_linear_10931_600)"/>
<path d="M148.968 19.4044L144.955 0.0359747H144.931V0.0238467L137.232 0.0117188L144.591 35.6073H153.308L160.69 0.0238467H152.98L148.968 19.4044Z" fill="url(#paint4_linear_10931_600)"/>
<path d="M240.8 0.0488281H232.483L228.289 14.8935H228.107V0.0488281H220.409L220.396 35.6323H228.107V20.7028L228.276 20.6906L232.883 35.4504L240.606 35.5595L235.429 17.1978L240.8 0.0488281Z" fill="url(#paint5_linear_10931_600)"/>
<path d="M208.456 15.7546V7.30136C208.456 6.82837 208.892 6.4524 209.426 6.4524H217.124L217.051 0.0488281H205.34C201.158 0.0488281 200.758 0.267132 200.758 4.13596V32.4305C200.758 35.8627 201.825 35.5353 205.328 35.5353H217.184L217.112 29.1317H209.414C208.88 29.1317 208.456 28.7436 208.456 28.2828V15.7424V15.7546Z" fill="url(#paint6_linear_10931_600)"/>
<path d="M180.571 24.7786C182.293 24.7543 183.663 24.4147 183.663 22.3045V4.13677C183.663 0.255822 183.311 0.0253906 179.092 0.0253906H162.969V35.6089H170.667V23.9781L172.461 24.1964L176.462 35.5361H184.657L180.571 24.7786ZM175.965 17.7444C175.965 18.2174 175.54 18.5933 175.007 18.5933H170.667V6.44109H175.007C175.54 6.44109 175.965 6.82919 175.965 7.29005V17.7444Z" fill="url(#paint7_linear_10931_600)"/>
<path d="M105.676 35.4991V23.2013L113.835 2.99609L113.822 35.4991H105.676Z" fill="url(#paint8_linear_10931_600)"/>
<path d="M132.444 0.0117188H123.74L116.381 35.5103H124.079L125.012 31.023H131.159L132.092 35.5103H139.79L132.444 0.0117188ZM126.407 24.68L128.201 13.5951L129.898 24.68H126.407Z" fill="url(#paint9_linear_10931_600)"/>
<path d="M111.52 90.7531H120.988V86.86H115.423V82.2635H119.484V78.3704H115.423V73.7739H120.988V69.8809H111.52V90.7531Z" fill="url(#paint10_linear_10931_600)"/>
<path d="M168.134 69.8809L164.594 90.7531H168.631L169.37 86.1566H171.758L172.474 90.7531H176.523L173.031 69.8809H168.134ZM171.177 82.3363H169.952L170.558 78.0309L171.164 82.3363H171.177Z" fill="url(#paint11_linear_10931_600)"/>
<path d="M182.863 69.6274C181.433 69.6274 180.196 70.1367 179.178 71.1555C178.16 72.1621 177.65 73.4113 177.65 74.8545V85.8061C177.65 87.2493 178.16 88.4864 179.166 89.493C180.172 90.4996 181.421 91.009 182.863 91.009C184.306 91.009 185.518 90.4996 186.537 89.493C187.555 88.4864 188.076 87.2493 188.076 85.794V82.5679H184.076V85.7576C184.076 86.1214 183.954 86.4246 183.7 86.6672C183.191 87.1644 182.378 87.1765 181.869 86.6672C181.615 86.4125 181.493 86.1214 181.493 85.7576V74.7818C181.493 74.4179 181.615 74.1147 181.869 73.86C182.378 73.3385 183.191 73.3507 183.688 73.86C183.942 74.1147 184.063 74.4179 184.063 74.7818V77.5591H188.064V74.8424C188.064 73.4113 187.555 72.1742 186.549 71.1555C185.542 70.1367 184.294 69.6152 182.851 69.6152L182.863 69.6274Z" fill="url(#paint12_linear_10931_600)"/>
<path d="M196.733 78.3704H194.005V69.8809H190.102V90.7531H194.005V82.2878H196.733V90.7531H200.636V69.8809H196.733V78.3704Z" fill="url(#paint13_linear_10931_600)"/>
<path d="M215.996 80.7111L212.771 69.8809H208.613V90.7531H212.517V80.2988L215.899 90.7531H219.888V69.8809H215.996V80.7111Z" fill="url(#paint14_linear_10931_600)"/>
<path d="M231.38 73.7739V69.8809H221.924V90.7531H231.38V86.86H225.815V82.2635H229.889V78.3704H225.815V73.7739H231.38Z" fill="url(#paint15_linear_10931_600)"/>
<path d="M109.448 69.8809H104.513L102.174 82.312L99.737 69.8809H94.6211V90.7531H98.5126V81.6207L102.174 90.7531L105.301 82.7486L109.448 69.8809Z" fill="url(#paint16_linear_10931_600)"/>
<path d="M105.568 84.556V90.7534H109.472V72.4766L105.568 84.556Z" fill="url(#paint17_linear_10931_600)"/>
<path d="M162.62 69.8809H157.674L155.334 82.312L152.909 69.8809H147.781V90.7531H151.685V81.6207L155.334 90.7531L158.462 82.7486L162.62 69.8809Z" fill="url(#paint18_linear_10931_600)"/>
<path d="M158.74 84.556V90.7534H162.632V72.4766L158.74 84.556Z" fill="url(#paint19_linear_10931_600)"/>
<path d="M206.541 69.8809H202.686V75.3384L206.541 69.8809Z" fill="url(#paint20_linear_10931_600)"/>
<path d="M202.686 76.7448V90.7526H206.589V71.2266L202.686 76.7448Z" fill="url(#paint21_linear_10931_600)"/>
<path d="M132.711 80.1667L127.922 73.6055H131.62L134.505 77.8624L137.524 73.6055H141.052L136.348 80.009L141.646 87.4556H137.984L134.481 82.3376L131.086 87.4556H127.498L132.711 80.1788V80.1667Z" fill="url(#paint22_linear_10931_600)"/>
</g>
<defs>
<linearGradient id="paint0_linear_10931_600" x1="163" y1="21.136" x2="163" y2="54.7913" gradientUnits="userSpaceOnUse">
<stop stop-color="white"/>
<stop offset="1" stop-color="white" stop-opacity="0.86"/>
</linearGradient>
<linearGradient id="paint1_linear_10931_600" x1="99.8739" y1="0.53495" x2="99.8739" y2="30.403" gradientUnits="userSpaceOnUse">
<stop stop-color="white"/>
<stop offset="1" stop-color="white" stop-opacity="0.86"/>
</linearGradient>
<linearGradient id="paint2_linear_10931_600" x1="192.211" y1="0.285236" x2="192.211" y2="10.7584" gradientUnits="userSpaceOnUse">
<stop stop-color="white"/>
<stop offset="1" stop-color="white" stop-opacity="0.86"/>
</linearGradient>
<linearGradient id="paint3_linear_10931_600" x1="192.211" y1="3.89379" x2="192.211" y2="31.0057" gradientUnits="userSpaceOnUse">
<stop stop-color="white"/>
<stop offset="1" stop-color="white" stop-opacity="0.86"/>
</linearGradient>
<linearGradient id="paint4_linear_10931_600" x1="148.961" y1="0.548314" x2="148.961" y2="30.5082" gradientUnits="userSpaceOnUse">
<stop stop-color="white"/>
<stop offset="1" stop-color="white" stop-opacity="0.86"/>
</linearGradient>
<linearGradient id="paint5_linear_10931_600" x1="230.598" y1="0.585241" x2="230.598" y2="30.5349" gradientUnits="userSpaceOnUse">
<stop stop-color="white"/>
<stop offset="1" stop-color="white" stop-opacity="0.86"/>
</linearGradient>
<linearGradient id="paint6_linear_10931_600" x1="208.971" y1="0.583905" x2="208.971" y2="30.459" gradientUnits="userSpaceOnUse">
<stop stop-color="white"/>
<stop offset="1" stop-color="white" stop-opacity="0.86"/>
</linearGradient>
<linearGradient id="paint7_linear_10931_600" x1="173.813" y1="0.561803" x2="173.813" y2="30.5115" gradientUnits="userSpaceOnUse">
<stop stop-color="white"/>
<stop offset="1" stop-color="white" stop-opacity="0.86"/>
</linearGradient>
<linearGradient id="paint8_linear_10931_600" x1="109.755" y1="3.48607" x2="109.755" y2="30.843" gradientUnits="userSpaceOnUse">
<stop stop-color="white"/>
<stop offset="1" stop-color="white" stop-opacity="0.86"/>
</linearGradient>
<linearGradient id="paint9_linear_10931_600" x1="128.086" y1="0.546851" x2="128.086" y2="30.4251" gradientUnits="userSpaceOnUse">
<stop stop-color="white"/>
<stop offset="1" stop-color="white" stop-opacity="0.86"/>
</linearGradient>
<linearGradient id="paint10_linear_10931_600" x1="116.254" y1="70.1955" x2="116.254" y2="87.7631" gradientUnits="userSpaceOnUse">
<stop stop-color="white"/>
<stop offset="1" stop-color="white" stop-opacity="0.86"/>
</linearGradient>
<linearGradient id="paint11_linear_10931_600" x1="170.558" y1="70.1955" x2="170.558" y2="87.7631" gradientUnits="userSpaceOnUse">
<stop stop-color="white"/>
<stop offset="1" stop-color="white" stop-opacity="0.86"/>
</linearGradient>
<linearGradient id="paint12_linear_10931_600" x1="182.863" y1="69.9377" x2="182.863" y2="87.9443" gradientUnits="userSpaceOnUse">
<stop stop-color="white"/>
<stop offset="1" stop-color="white" stop-opacity="0.86"/>
</linearGradient>
<linearGradient id="paint13_linear_10931_600" x1="195.369" y1="70.1955" x2="195.369" y2="87.7631" gradientUnits="userSpaceOnUse">
<stop stop-color="white"/>
<stop offset="1" stop-color="white" stop-opacity="0.86"/>
</linearGradient>
<linearGradient id="paint14_linear_10931_600" x1="214.25" y1="70.1955" x2="214.25" y2="87.7631" gradientUnits="userSpaceOnUse">
<stop stop-color="white"/>
<stop offset="1" stop-color="white" stop-opacity="0.86"/>
</linearGradient>
<linearGradient id="paint15_linear_10931_600" x1="226.652" y1="70.1955" x2="226.652" y2="87.7631" gradientUnits="userSpaceOnUse">
<stop stop-color="white"/>
<stop offset="1" stop-color="white" stop-opacity="0.86"/>
</linearGradient>
<linearGradient id="paint16_linear_10931_600" x1="102.034" y1="70.1955" x2="102.034" y2="87.7631" gradientUnits="userSpaceOnUse">
<stop stop-color="white"/>
<stop offset="1" stop-color="white" stop-opacity="0.86"/>
</linearGradient>
<linearGradient id="paint17_linear_10931_600" x1="107.52" y1="72.7521" x2="107.52" y2="88.1352" gradientUnits="userSpaceOnUse">
<stop stop-color="white"/>
<stop offset="1" stop-color="white" stop-opacity="0.86"/>
</linearGradient>
<linearGradient id="paint18_linear_10931_600" x1="155.201" y1="70.1955" x2="155.201" y2="87.7631" gradientUnits="userSpaceOnUse">
<stop stop-color="white"/>
<stop offset="1" stop-color="white" stop-opacity="0.86"/>
</linearGradient>
<linearGradient id="paint19_linear_10931_600" x1="160.686" y1="72.7521" x2="160.686" y2="88.1352" gradientUnits="userSpaceOnUse">
<stop stop-color="white"/>
<stop offset="1" stop-color="white" stop-opacity="0.86"/>
</linearGradient>
<linearGradient id="paint20_linear_10931_600" x1="204.613" y1="69.9631" x2="204.613" y2="74.5566" gradientUnits="userSpaceOnUse">
<stop stop-color="white"/>
<stop offset="1" stop-color="white" stop-opacity="0.86"/>
</linearGradient>
<linearGradient id="paint21_linear_10931_600" x1="204.637" y1="71.5209" x2="204.637" y2="87.9555" gradientUnits="userSpaceOnUse">
<stop stop-color="white"/>
<stop offset="1" stop-color="white" stop-opacity="0.86"/>
</linearGradient>
<linearGradient id="paint22_linear_10931_600" x1="134.572" y1="73.6055" x2="133.796" y2="95.3096" gradientUnits="userSpaceOnUse">
<stop stop-color="#ED1C24"/>
<stop offset="1" stop-color="#ED1C24" stop-opacity="0"/>
</linearGradient>
<clipPath id="clip0_10931_600">
<rect width="326" height="91.0083" fill="white"/>
</clipPath>
</defs>
</svg>
